Coordinates
version=1
nRows=19
nColumns=30
inDegrees=yes

Units are S.I. units (second, meters, Newtons, ...)
Angles are in degrees.

endheader
time	floatyaw	floatroll	floatpitch	floatx	floaty	floatz	pro_sup_l	deviation_l	flexion_l	cmc_flexion_l	cmc_abduction_l	mp_flexion_l	ip_flexion_l	2mcp_flexion_l	2mcp_abduction_l	2pm_flexion_l	2md_flexion_l	3mcp_flexion_l	3mcp_abduction_l	3pm_flexion_l	3md_flexion_l	4mcp_flexion_l	4mcp_abduction_l	4pm_flexion_l	4md_flexion_l	5mcp_flexion_l	5mcp_abduction_l	5pm_flexion_l	5md_flexion_l
-0.495000	-160.147433	-5.066637	-73.570646	0.079645	-0.181255	-0.018083	102.192474	4.078091	-1.008152	11.746262	10.515371	-26.381615	-41.514380	30.260053	6.966077	43.886077	30.021556	24.062089	4.215369	46.271648	30.668800	13.487571	-4.386401	52.877289	36.400728	2.380383	-7.981266	61.247884	42.387094
-0.485000	-160.147433	-5.066637	-73.570646	0.079494	-0.181089	-0.018273	102.223959	4.155155	-1.035714	11.722013	10.563624	-26.362600	-41.498346	30.255142	6.957474	43.879388	30.020437	24.058750	4.219326	46.228540	30.637883	13.505329	-4.385815	52.834894	36.388686	2.388615	-7.982527	61.222962	42.377798
-0.475000	-160.147433	-5.066637	-73.570646	0.079308	-0.180879	-0.018493	102.278577	4.247600	-1.079692	11.703454	10.632858	-26.338225	-41.473713	30.250354	6.952058	43.859175	30.009871	24.063682	4.225064	46.160583	30.596589	13.526449	-4.387648	52.786870	36.378913	2.409814	-7.986207	61.175501	42.359181
-0.465000	-160.147433	-5.066637	-73.570646	0.079089	-0.180633	-0.018742	102.360944	4.354250	-1.143269	11.695429	10.714820	-26.318590	-41.450399	30.237672	6.952101	43.833885	29.994378	24.072414	4.231055	46.083540	30.553709	13.547661	-4.391656	52.740114	36.371621	2.435674	-7.991424	61.122988	42.339528
-0.455000	-160.147433	-5.066637	-73.570646	0.078844	-0.180364	-0.019008	102.469163	4.470195	-1.224128	11.695668	10.798636	-26.310682	-41.435629	30.214205	6.956791	43.811823	29.978608	24.080016	4.236010	46.011676	30.516057	13.565682	-4.397164	52.700640	36.366090	2.454730	-7.995430	61.086968	42.328784
-0.445000	-160.147433	-5.066637	-73.570646	0.078584	-0.180086	-0.019281	102.593008	4.588168	-1.315652	11.694155	10.876034	-26.315346	-41.430845	30.183458	6.961846	43.797927	29.965445	24.082458	4.239001	45.952973	30.486725	13.577398	-4.402956	52.671085	36.361518	2.458029	-7.994467	61.081266	42.332766
-0.435000	-160.147433	-5.066637	-73.570646	0.078317	-0.179811	-0.019552	102.716997	4.700786	-1.409927	11.677783	10.944967	-26.327580	-41.432264	30.151958	6.961198	43.793554	29.956156	24.076729	4.239470	45.908637	30.465809	13.579846	-4.407501	52.650690	36.358154	2.443850	-7.985694	61.104124	42.349373
-0.425000	-160.147433	-5.066637	-73.570646	0.078044	-0.179547	-0.019818	102.827603	4.802380	-1.500975	11.638425	11.009730	-26.340243	-41.435228	30.123361	6.949906	43.798237	29.951885	24.060034	4.237239	45.876203	30.452595	13.570072	-4.409393	52.637517	36.357856	2.418236	-7.969167	61.139329	42.369447
-0.415000	-160.147433	-5.066637	-73.570646	0.077764	-0.179298	-0.020078	102.921012	4.889692	-1.586759	11.579943	11.077851	-26.348365	-41.439286	30.094254	6.926555	43.810899	29.954539	24.029349	4.232468	45.853307	30.447205	13.545505	-4.407711	52.630353	36.363055	2.391103	-7.948553	61.165633	42.381852
-0.405000	-160.147433	-5.066637	-73.570646	0.077468	-0.179066	-0.020339	103.006822	4.961447	-1.669066	11.519675	11.155908	-26.350652	-41.449931	30.055034	6.893757	43.829243	29.965636	23.982199	4.225522	45.839350	30.450281	13.505321	-4.402171	52.628046	36.374094	2.370642	-7.929828	61.168164	42.379278
-0.395000	-160.147433	-5.066637	-73.570646	0.077151	-0.178853	-0.020604	103.105048	5.017191	-1.751302	11.482723	11.246366	-26.347420	-41.475231	29.995624	6.856610	43.848580	29.983735	23.918128	4.216818	45.834654	30.461083	13.452215	-4.393158	52.626765	36.386399	2.359466	-7.918572	61.145043	42.361114
-0.385000	-160.147433	-5.066637	-73.570646	0.076811	-0.178660	-0.020884	103.238040	5.056068	-1.835345	11.491249	11.346077	-26.337595	-41.519669	29.912022	6.820325	43.862737	30.002886	23.839461	4.206699	45.839128	30.475893	13.393224	-4.381700	52.618324	36.389884	2.354253	-7.917562	61.107074	42.332391
-0.375000	-160.147433	-5.066637	-73.570646	0.076452	-0.178492	-0.021188	103.422421	5.076508	-1.919167	11.553861	11.446080	-26.318282	-41.580007	29.808700	6.788600	43.868239	30.014441	23.750432	4.195419	45.852800	30.488836	13.338531	-4.369417	52.592916	36.372406	2.348251	-7.926054	61.073506	42.300844
-0.365000	-160.147433	-5.066637	-73.570646	0.076083	-0.178351	-0.021529	103.665775	5.077728	-1.996270	11.660325	11.532675	-26.287870	-41.646656	29.694975	6.763606	43.869757	30.012476	23.655312	4.183273	45.878361	30.495703	13.298479	-4.358487	52.546721	36.327111	2.334686	-7.940835	61.067765	42.274882
-0.355000	-160.147433	-5.066637	-73.570646	0.075716	-0.178231	-0.021925	103.968621	5.063247	-2.056398	11.784031	11.590569	-26.250289	-41.709977	29.578556	6.747249	43.882526	30.000364	23.557557	4.171012	45.923254	30.499175	13.280549	-4.351591	52.490451	36.260899	2.309628	-7.958095	61.113981	42.263699
-0.345000	-160.147433	-5.066637	-73.570646	0.075358	-0.178115	-0.022403	104.327949	5.045242	-2.086321	11.890837	11.608590	-26.216956	-41.767393	29.462057	6.742559	43.928487	29.994773	23.461887	4.160449	45.998218	30.512285	13.288639	-4.351570	52.452250	36.199261	2.274273	-7.975190	61.232111	42.278439
-0.335000	-160.147433	-5.066637	-73.570646	0.075007	-0.177970	-0.022998	104.737924	5.047418	-2.070490	11.949974	11.586735	-26.204761	-41.826801	29.345870	6.753986	44.026747	30.024056	23.379186	4.154823	46.111163	30.556812	13.325813	-4.360459	52.469837	36.182715	2.236991	-7.991733	61.429956	42.332075
-0.325000	-160.147433	-5.066637	-73.570646	0.074645	-0.177746	-0.023756	105.186555	5.104325	-1.993003	11.942186	11.541003	-26.231159	-41.904187	29.235283	6.785865	44.182801	30.120145	23.331067	4.158195	46.258711	30.655199	13.399142	-4.377919	52.572679	36.253079	2.214185	-8.009504	61.694338	42.436334
-0.315000	-160.147433	-5.066637	-73.570646	0.074239	-0.177393	-0.024729	105.651109	5.256949	-1.842622	11.862093	11.501522	-26.308930	-42.016641	29.145740	6.839350	44.382362	30.305872	23.349208	4.173661	46.420666	30.818228	13.522808	-4.399794	52.762341	36.433393	2.227568	-8.030488	61.987650	42.596146
